<svg width="31" height="31" viewBox="0 0 31 31" fill="none" xmlns="http://www.w3.org/2000/svg">
<path d="M0.804443 0.962306V29.4223C0.804443 29.8473 1.14944 30.1923 1.57444 30.1923H14.9344C15.3594 30.1923 15.7044 29.8473 15.7044 29.4223V15.9573C15.7044 15.5323 16.0494 15.1873 16.4744 15.1873H30.0344C30.4594 15.1873 30.8044 14.8423 30.8044 14.4173V0.962306C30.8044 0.537306 30.4594 0.192307 30.0344 0.192307H1.57444C1.14944 0.192307 0.804443 0.537306 0.804443 0.962306Z" fill="#FA6400"/>
<path d="M17.5594 30.1923H30.0344C30.4594 30.1923 30.8044 29.8473 30.8044 29.4223V16.9473C30.8044 16.2623 29.9744 15.9173 29.4894 16.4023L17.0144 28.8773C16.5294 29.3623 16.8744 30.1923 17.5594 30.1923Z" fill="#2C2C2C"/>
</svg>
