<svg width="302" height="57" viewBox="0 0 302 57" fill="none" xmlns="http://www.w3.org/2000/svg">
<g clip-path="url(#clip0_4_154)">
<path d="M55.411 0H2.8132C1.59758 0 0.612122 0.985456 0.612122 2.20108V54.7989C0.612122 56.0145 1.59758 57 2.8132 57H55.411C56.6267 57 57.6121 56.0145 57.6121 54.7989V2.20108C57.6121 0.985456 56.6267 0 55.411 0Z" fill="#F3F3F3"/>
<path d="M81.1751 14.3377C83.1482 14.3377 84.8406 14.6972 86.2525 15.4075C87.6643 16.1178 88.7429 17.1263 89.4971 18.4154C90.2512 19.7045 90.6283 21.2303 90.6283 22.9666C90.6283 24.2995 90.3915 25.4834 89.9268 26.5357C89.462 27.588 88.8394 28.4737 88.0589 29.2015C87.2785 29.9294 86.4103 30.4731 85.472 30.8238L91.1457 42.3992H85.9017L80.8682 31.6131H75.0542V42.3992H70.4503V14.3465H81.1751V14.3377ZM75.0542 27.9037H80.3946C82.1222 27.9037 83.4551 27.5003 84.4022 26.7023C85.3492 25.9043 85.8228 24.7117 85.8228 23.1332C85.8228 21.5548 85.3492 20.3008 84.3934 19.4414C83.4375 18.582 82.1485 18.1611 80.5174 18.1611H75.0542V27.9037Z" fill="#2C2C2C"/>
<path d="M104.948 20.3008C106.843 20.3008 108.509 20.6954 109.964 21.4758C111.42 22.2563 112.551 23.3788 113.367 24.8432C114.182 26.3077 114.586 28.0528 114.586 30.0872V32.9022C114.586 34.998 114.182 36.7869 113.367 38.2602C112.551 39.7334 111.42 40.8558 109.964 41.6188C108.509 42.3817 106.843 42.7675 104.948 42.7675C103.054 42.7675 101.353 42.3817 99.9061 41.6188C98.4592 40.8558 97.328 39.7334 96.5037 38.2689C95.6794 36.8045 95.2672 35.0243 95.2672 32.9285V30.1135C95.2672 28.1229 95.6794 26.4042 96.5037 24.9309C97.328 23.4577 98.468 22.3265 99.9237 21.5197C101.379 20.7129 103.054 20.3095 104.948 20.3095V20.3008ZM104.966 23.9751C103.87 23.9751 102.949 24.2557 102.195 24.8082C101.441 25.3606 100.862 26.1148 100.467 27.0706C100.073 28.0265 99.8711 29.1051 99.8711 30.324V32.7531C99.8711 33.972 100.055 35.0594 100.432 36.0065C100.809 36.9535 101.379 37.7077 102.134 38.2602C102.896 38.8038 103.835 39.0845 104.957 39.0845C106.08 39.0845 107.009 38.8126 107.755 38.2602C108.5 37.7077 109.052 36.9623 109.43 36.0065C109.807 35.0506 109.991 33.972 109.991 32.7531V30.324C109.991 29.1051 109.798 28.0177 109.403 27.0706C109.009 26.1235 108.447 25.3606 107.693 24.8082C106.939 24.2557 106.036 23.9751 104.948 23.9751H104.966Z" fill="#2C2C2C"/>
<path d="M137.745 20.6691V42.3905H133.264V38.7775H133.019C132.826 39.3651 132.466 39.9614 131.94 40.5665C131.414 41.1715 130.712 41.6802 129.836 42.1011C128.959 42.522 127.88 42.7237 126.608 42.7237C125.153 42.7237 123.881 42.4782 122.776 41.9959C121.671 41.5135 120.812 40.7419 120.189 39.6983C119.567 38.6548 119.251 37.278 119.251 35.5768V20.6779H123.811V34.3842C123.811 35.5329 124.013 36.4362 124.416 37.0851C124.82 37.734 125.346 38.1988 125.995 38.4619C126.644 38.7249 127.354 38.8652 128.126 38.8652C129.081 38.8652 129.941 38.6548 130.704 38.2251C131.467 37.7954 132.063 37.2254 132.51 36.4975C132.957 35.7697 133.177 34.9542 133.177 34.0509V20.6691H137.737H137.745Z" fill="#2C2C2C"/>
<path d="M144.998 20.8094V15.3812H149.461V20.8094H154.31V24.3872H149.461V35.9188C149.461 37.0938 149.715 37.8918 150.215 38.3128C150.715 38.7337 151.574 38.9354 152.793 38.9354C153.109 38.9354 153.442 38.9266 153.793 38.9003C154.144 38.874 154.407 38.8652 154.582 38.8477V42.3378C154.407 42.3641 154.004 42.3992 153.381 42.4518C152.758 42.5045 152.188 42.522 151.662 42.522C149.908 42.522 148.54 42.3028 147.558 41.8643C146.576 41.4258 145.901 40.7418 145.515 39.8211C145.129 38.9003 144.936 37.7165 144.936 36.2783V24.3785H141.63V20.8006H144.998V20.8094Z" fill="#2C2C2C"/>
<path d="M167.499 42.7588C165.544 42.7588 163.843 42.3729 162.404 41.6012C160.966 40.8295 159.853 39.7071 159.072 38.2514C158.292 36.7957 157.897 35.0418 157.897 32.9986V30.0609C157.897 28.0089 158.309 26.2551 159.134 24.7994C159.958 23.3437 161.072 22.23 162.475 21.4583C163.878 20.6866 165.465 20.3008 167.236 20.3008C169.008 20.3008 170.665 20.7042 172.059 21.5022C173.454 22.3002 174.541 23.4314 175.339 24.8871C176.137 26.3428 176.532 28.0615 176.532 30.0697V32.6215H162.431V33.6914C162.431 35.2435 162.869 36.5326 163.755 37.5674C164.641 38.6021 165.886 39.1195 167.482 39.1195C168.28 39.1195 168.981 39.0055 169.595 38.7775C170.209 38.5495 170.709 38.2514 171.086 37.8743C171.463 37.4972 171.709 37.0851 171.814 36.6291H176.277C176.207 37.2605 175.988 37.9269 175.611 38.646C175.234 39.3651 174.69 40.0228 173.989 40.6542C173.287 41.2855 172.393 41.7854 171.314 42.1888C170.235 42.5921 168.964 42.7851 167.499 42.7851V42.7588ZM162.422 29.6312H172.059V29.3418C172.059 28.2457 171.858 27.2898 171.463 26.4743C171.068 25.6588 170.507 25.0274 169.788 24.5714C169.069 24.1154 168.218 23.8962 167.254 23.8962C166.289 23.8962 165.43 24.1242 164.702 24.5714C163.974 25.0186 163.413 25.6588 163.018 26.4743C162.624 27.2898 162.422 28.2457 162.422 29.3418V29.6312Z" fill="#2C2C2C"/>
<path d="M192.22 14.3377C194.193 14.3377 195.885 14.6972 197.297 15.4075C198.709 16.1178 199.788 17.1263 200.542 18.4154C201.296 19.7045 201.673 21.2303 201.673 22.9666C201.673 24.2995 201.436 25.4834 200.972 26.5357C200.507 27.588 199.884 28.4737 199.104 29.2015C198.323 29.9294 197.455 30.4731 196.517 30.8238L202.19 42.3992H196.946L191.913 31.6131H186.099V42.3992H181.495V14.3465H192.22V14.3377ZM186.099 27.9037H191.439C193.167 27.9037 194.5 27.5003 195.447 26.7023C196.394 25.9043 196.868 24.7117 196.868 23.1332C196.868 21.5548 196.394 20.3008 195.438 19.4414C194.482 18.582 193.193 18.1611 191.562 18.1611H186.099V27.9037Z" fill="#2C2C2C"/>
<path d="M215.362 20.3008C217.256 20.3008 218.922 20.6954 220.378 21.4758C221.834 22.2563 222.965 23.3788 223.78 24.8432C224.596 26.3077 224.999 28.0528 224.999 30.0872V32.9022C224.999 34.998 224.596 36.7869 223.78 38.2602C222.965 39.7334 221.834 40.8558 220.378 41.6188C218.922 42.3817 217.256 42.7675 215.362 42.7675C213.468 42.7675 211.758 42.3817 210.32 41.6188C208.881 40.8558 207.741 39.7334 206.917 38.2689C206.093 36.8045 205.681 35.0243 205.681 32.9285V30.1135C205.681 28.1229 206.093 26.4042 206.917 24.9309C207.741 23.4577 208.881 22.3265 210.337 21.5197C211.793 20.7129 213.468 20.3095 215.362 20.3095V20.3008ZM215.379 23.9751C214.283 23.9751 213.363 24.2557 212.608 24.8082C211.854 25.3606 211.275 26.1148 210.881 27.0706C210.486 28.0265 210.285 29.1051 210.285 30.324V32.7531C210.285 33.972 210.469 35.0594 210.846 36.0065C211.223 36.9535 211.793 37.7077 212.556 38.2602C213.319 38.8126 214.257 39.0845 215.379 39.0845C216.502 39.0845 217.431 38.8126 218.177 38.2602C218.922 37.7077 219.475 36.9623 219.852 36.0065C220.229 35.0506 220.413 33.972 220.413 32.7531V30.324C220.413 29.1051 220.22 28.0177 219.825 27.0706C219.431 26.1235 218.87 25.3606 218.115 24.8082C217.361 24.2557 216.458 23.9751 215.371 23.9751H215.379Z" fill="#2C2C2C"/>
<path d="M228.875 27.0005C228.875 25.4132 229.27 24.1242 230.059 23.1508C230.848 22.1774 231.883 21.4495 233.163 20.9935C234.444 20.5375 235.82 20.3008 237.285 20.3008C238.89 20.3008 240.293 20.5551 241.485 21.0637C242.678 21.5723 243.625 22.2826 244.3 23.2122C244.976 24.1417 245.317 25.2466 245.317 26.5357H241.205C241.161 26.0534 240.986 25.5974 240.679 25.1589C240.372 24.7205 239.924 24.3609 239.354 24.0715C238.784 23.7822 238.048 23.6418 237.153 23.6418C235.987 23.6418 235.049 23.9049 234.33 24.4223C233.611 24.9397 233.251 25.6675 233.251 26.5971C233.251 27.2022 233.426 27.6845 233.768 28.0528C234.11 28.4211 234.549 28.7105 235.093 28.9122C235.636 29.1138 236.224 29.2805 236.873 29.4032C237.522 29.526 238.144 29.64 238.741 29.7365C240.1 29.9732 241.319 30.2977 242.397 30.7186C243.476 31.1395 244.335 31.7622 244.967 32.5689C245.598 33.3757 245.914 34.4631 245.914 35.8398C245.914 37.3043 245.554 38.5583 244.826 39.5931C244.099 40.6278 243.064 41.4171 241.713 41.9608C240.363 42.5045 238.767 42.7763 236.934 42.7763C235.224 42.7763 233.725 42.522 232.453 42.0222C231.182 41.5223 230.199 40.812 229.507 39.8825C228.814 38.9529 228.472 37.848 228.472 36.5589H232.909C232.988 37.1377 233.19 37.6375 233.505 38.076C233.821 38.5145 234.277 38.8477 234.882 39.0845C235.487 39.3212 236.241 39.4352 237.162 39.4352C238.179 39.4352 239.004 39.2949 239.635 39.0231C240.266 38.7512 240.74 38.3829 241.029 37.9094C241.319 37.4358 241.468 36.9272 241.468 36.366C241.468 35.6118 241.222 35.0418 240.731 34.6472C240.24 34.2526 239.582 33.9545 238.758 33.7528C237.934 33.5511 237.039 33.3582 236.066 33.174C234.751 32.9022 233.54 32.5514 232.453 32.1392C231.366 31.7271 230.489 31.1132 229.84 30.3065C229.191 29.4997 228.875 28.3948 228.875 26.9829V27.0005Z" fill="#2C2C2C"/>
<path d="M251.877 20.8094V15.3812H256.34V20.8094H261.19V24.3872H256.34V35.9188C256.34 37.0938 256.595 37.8918 257.095 38.3128C257.594 38.7337 258.454 38.9354 259.673 38.9354C259.988 38.9354 260.322 38.9266 260.672 38.9003C261.023 38.874 261.286 38.8652 261.462 38.8477V42.3378C261.286 42.3641 260.883 42.3992 260.26 42.4518C259.638 42.5045 259.068 42.522 258.542 42.522C256.788 42.522 255.42 42.3028 254.438 41.8643C253.455 41.4258 252.78 40.7418 252.394 39.8211C252.008 38.9003 251.816 37.7165 251.816 36.2783V24.3785H248.51V20.8006H251.877V20.8094Z" fill="#2C2C2C"/>
<path d="M274.37 42.7588C272.414 42.7588 270.713 42.3729 269.275 41.6012C267.837 40.8295 266.723 39.7071 265.943 38.2514C265.162 36.7957 264.768 35.0418 264.768 32.9986V30.0609C264.768 28.0089 265.18 26.2551 266.004 24.7994C266.828 23.3437 267.942 22.23 269.345 21.4583C270.748 20.6866 272.336 20.3008 274.107 20.3008C275.878 20.3008 277.536 20.7042 278.93 21.5022C280.324 22.3002 281.412 23.4314 282.21 24.8871C283.008 26.3428 283.402 28.0615 283.402 30.0697V32.6215H269.301V33.6914C269.301 35.2435 269.74 36.5326 270.626 37.5674C271.511 38.6021 272.756 39.1195 274.352 39.1195C275.15 39.1195 275.852 39.0055 276.466 38.7775C277.08 38.5495 277.58 38.2514 277.957 37.8743C278.334 37.4972 278.579 37.0851 278.684 36.6291H283.148C283.078 37.2605 282.859 37.9269 282.482 38.646C282.104 39.3651 281.561 40.0228 280.859 40.6542C280.158 41.2855 279.263 41.7854 278.185 42.1888C277.106 42.5921 275.834 42.7851 274.37 42.7851V42.7588ZM269.301 29.6312H278.939V29.3418C278.939 28.2457 278.737 27.2898 278.342 26.4743C277.948 25.6588 277.387 25.0274 276.668 24.5714C275.948 24.1154 275.098 23.8962 274.133 23.8962C273.169 23.8962 272.309 24.1242 271.581 24.5714C270.854 25.0186 270.292 25.6588 269.898 26.4743C269.503 27.2898 269.301 28.2457 269.301 29.3418V29.6312Z" fill="#2C2C2C"/>
<path d="M288.383 42.3905V20.6691H292.926V24.0628H293.171C293.338 23.5717 293.636 23.0368 294.066 22.4668C294.495 21.8968 295.1 21.4057 295.881 20.9848C296.661 20.5638 297.652 20.3622 298.862 20.3622C299.161 20.3622 299.441 20.3709 299.695 20.3972C299.95 20.4235 300.187 20.4498 300.406 20.4937V24.5188C300.204 24.4662 299.923 24.4223 299.564 24.396C299.204 24.3697 298.836 24.3522 298.45 24.3522C297.231 24.3522 296.214 24.5714 295.407 25.0186C294.601 25.4658 293.995 26.0709 293.601 26.8514C293.206 27.6318 293.005 28.5 293.005 29.4734V42.3992H288.383V42.3905Z" fill="#2C2C2C"/>
<path d="M285.454 9.34801C285.998 9.34801 286.445 9.46201 286.805 9.68124C287.164 9.90047 287.436 10.1986 287.62 10.5669C287.804 10.9352 287.901 11.3386 287.901 11.7859C287.901 12.2331 287.804 12.6365 287.62 13.0048C287.436 13.3731 287.155 13.6625 286.787 13.8729C286.419 14.0834 285.963 14.1974 285.428 14.1974H284.174V16.3722H282.49V9.35678H285.454V9.34801ZM286.2 11.7771C286.2 11.4088 286.094 11.1282 285.893 10.9352C285.691 10.7423 285.419 10.6459 285.068 10.6459H284.183V12.9171H285.068C285.305 12.9171 285.507 12.8732 285.673 12.7855C285.84 12.6979 285.972 12.5663 286.068 12.3997C286.165 12.2331 286.208 12.0226 286.208 11.7859L286.2 11.7771Z" fill="#FA6400"/>
<path d="M291.768 9.34801C292.321 9.34801 292.794 9.44447 293.18 9.63739C293.566 9.83031 293.855 10.0934 294.057 10.4354C294.259 10.7774 294.355 11.1808 294.355 11.6455C294.355 12.0051 294.285 12.3208 294.153 12.5926C294.022 12.8645 293.855 13.0837 293.662 13.2503C293.469 13.4169 293.285 13.5485 293.101 13.6186L294.495 16.3634H292.627L291.444 13.8554H290.47V16.3634H288.813V9.34801H291.777H291.768ZM290.461 12.654H291.496C291.829 12.654 292.093 12.5751 292.294 12.4085C292.496 12.2419 292.601 11.9875 292.601 11.6543C292.601 11.3211 292.496 11.058 292.285 10.8826C292.075 10.7072 291.812 10.6195 291.505 10.6195H290.453V12.6628L290.461 12.654Z" fill="#FA6400"/>
<path d="M301.388 13.2766C301.388 13.9343 301.265 14.4955 301.02 14.9866C300.774 15.4777 300.423 15.846 299.958 16.1003C299.494 16.3546 298.932 16.4949 298.275 16.4949C297.617 16.4949 297.056 16.3634 296.591 16.1003C296.126 15.8372 295.767 15.4689 295.521 14.9866C295.276 14.5043 295.153 13.9343 295.153 13.2766V12.4611C295.153 11.7946 295.276 11.2246 295.521 10.7335C295.767 10.2425 296.126 9.87416 296.591 9.61985C297.056 9.36554 297.617 9.22523 298.275 9.22523C298.932 9.22523 299.502 9.35677 299.958 9.61985C300.414 9.88293 300.774 10.26 301.02 10.7335C301.265 11.2071 301.388 11.7858 301.388 12.4523V13.2678V13.2766ZM299.66 12.4348C299.66 12.0314 299.599 11.6894 299.485 11.4175C299.371 11.1457 299.204 10.944 298.994 10.8037C298.783 10.6634 298.538 10.602 298.266 10.602C297.994 10.602 297.74 10.6722 297.529 10.8037C297.319 10.9352 297.161 11.1457 297.038 11.4175C296.916 11.6894 296.863 12.0314 296.863 12.4348V13.2766C296.863 13.68 296.924 14.022 297.038 14.2938C297.152 14.5657 297.319 14.7762 297.529 14.9077C297.74 15.0392 297.985 15.1094 298.266 15.1094C298.547 15.1094 298.783 15.0392 298.994 14.9077C299.204 14.7762 299.362 14.5657 299.485 14.2938C299.608 14.022 299.66 13.68 299.66 13.2766V12.4348Z" fill="#FA6400"/>
<path d="M2.80444 3.54277V53.4572C2.80444 54.2026 3.40952 54.8077 4.1549 54.8077H27.5863C28.3317 54.8077 28.9367 54.2026 28.9367 53.4572V29.8417C28.9367 29.0963 29.5418 28.4912 30.2872 28.4912H54.0694C54.8147 28.4912 55.4198 27.8862 55.4198 27.1408V3.54277C55.4198 2.79738 54.8147 2.19231 54.0694 2.19231H4.1549C3.40952 2.19231 2.80444 2.79738 2.80444 3.54277Z" fill="#FA6400"/>
<path d="M32.1901 54.8077H54.0693C54.8147 54.8077 55.4198 54.2026 55.4198 53.4572V31.578C55.4198 30.3766 53.9641 29.7715 53.1135 30.6222L31.2343 52.5014C30.3836 53.352 30.9887 54.8077 32.1901 54.8077Z" fill="#2C2C2C"/>
</g>
<defs>
<clipPath id="clip0_4_154">
<rect width="300.776" height="57" fill="white" transform="translate(0.612122)"/>
</clipPath>
</defs>
</svg>
