<svg width="30" height="30" viewBox="0 0 30 30" fill="none" xmlns="http://www.w3.org/2000/svg">
<path d="M18.75 13.75C18.75 13.8736 18.7133 13.9945 18.6447 14.0972C18.576 14.2 18.4784 14.2801 18.3642 14.3274C18.25 14.3747 18.1243 14.3871 18.0031 14.363C17.8818 14.3389 17.7705 14.2794 17.6831 14.1919C17.5956 14.1045 17.5361 13.9932 17.512 13.8719C17.4879 13.7507 17.5003 13.625 17.5476 13.5108C17.5949 13.3966 17.675 13.299 17.7778 13.2303C17.8805 13.1617 18.0014 13.125 18.125 13.125C18.2908 13.125 18.4497 13.1908 18.5669 13.3081C18.6842 13.4253 18.75 13.5842 18.75 13.75ZM11.875 13.125C11.7514 13.125 11.6305 13.1617 11.5278 13.2303C11.425 13.299 11.3449 13.3966 11.2976 13.5108C11.2503 13.625 11.2379 13.7507 11.262 13.8719C11.2861 13.9932 11.3457 14.1045 11.4331 14.1919C11.5205 14.2794 11.6318 14.3389 11.7531 14.363C11.8743 14.3871 12 14.3747 12.1142 14.3274C12.2284 14.2801 12.326 14.2 12.3947 14.0972C12.4633 13.9945 12.5 13.8736 12.5 13.75C12.5 13.5842 12.4342 13.4253 12.3169 13.3081C12.1997 13.1908 12.0408 13.125 11.875 13.125ZM16.5075 17.0456C16.0587 17.3369 15.5351 17.4919 15 17.4919C14.4649 17.4919 13.9413 17.3369 13.4925 17.0456C13.4235 16.9995 13.3391 16.9827 13.2578 16.9989C13.1764 17.0151 13.1048 17.0629 13.0587 17.1319C13.0127 17.2008 12.9959 17.2853 13.012 17.3666C13.0282 17.448 13.076 17.5195 13.145 17.5656C13.6949 17.9304 14.3401 18.125 15 18.125C15.6599 18.125 16.3051 17.9304 16.855 17.5656C16.924 17.5195 16.9718 17.448 16.988 17.3666C17.0041 17.2853 16.9873 17.2008 16.9413 17.1319C16.8952 17.0629 16.8236 17.0151 16.7422 16.9989C16.6609 16.9827 16.5765 16.9995 16.5075 17.0456ZM5.93437 13.375L5.62813 11.1575C5.62385 9.94141 5.85942 8.73641 6.32134 7.61145C6.78327 6.48649 7.46249 5.46367 8.32013 4.60149C9.17778 3.73932 10.197 3.05472 11.3195 2.58688C12.442 2.11904 13.6458 1.87713 14.8619 1.875H15.1381C17.5867 1.87847 19.934 2.85267 21.6655 4.58403C23.397 6.31539 24.3714 8.66265 24.375 11.1112L24.0713 13.3325C24.0679 13.344 24.064 13.3552 24.0594 13.3663C24.1583 13.4533 24.2376 13.5604 24.292 13.6805C24.3464 13.8005 24.3747 13.9307 24.375 14.0625C24.3709 14.7467 24.1615 15.4138 23.7739 15.9777C23.3864 16.5415 22.8385 16.976 22.2013 17.225C21.6483 18.1787 20.9039 19.0075 20.0149 19.6592C19.1258 20.311 18.1114 20.7715 17.0356 21.0119C18.0914 21.4226 18.9988 22.1422 19.6391 23.0767C20.2795 24.0112 20.6231 25.1171 20.625 26.25V26.5625C20.625 26.9769 20.4604 27.3743 20.1674 27.6674C19.8743 27.9604 19.4769 28.125 19.0625 28.125H10.9375C10.5231 28.125 10.1257 27.9604 9.83265 27.6674C9.53962 27.3743 9.375 26.9769 9.375 26.5625V26.25C9.37678 25.117 9.72039 24.011 10.3609 23.0764C11.0014 22.1419 11.909 21.4223 12.965 21.0119C11.8892 20.7715 10.8748 20.311 9.98575 19.6592C9.09671 19.0075 8.35229 18.1787 7.79938 17.225C7.16195 16.9762 6.61391 16.5417 6.22623 15.9779C5.83855 15.414 5.6291 14.7468 5.625 14.0625C5.62572 13.9327 5.65361 13.8044 5.7069 13.686C5.76018 13.5676 5.83767 13.4616 5.93437 13.375ZM7.24688 16C7.23295 15.9599 7.22763 15.9173 7.23125 15.875C7.265 15.43 7.31875 14.5994 7.36875 13.75H6.5625C6.47962 13.75 6.40013 13.7829 6.34153 13.8415C6.28292 13.9001 6.25 13.9796 6.25 14.0625C6.25149 14.4885 6.35083 14.9085 6.54036 15.2901C6.72989 15.6716 7.00454 16.0045 7.34312 16.2631C7.30875 16.175 7.27687 16.0856 7.24625 16H7.24688ZM13.7619 21.415C13.8024 21.7148 13.9502 21.9898 14.178 22.1889C14.4058 22.388 14.6981 22.4977 15.0006 22.4977C15.3032 22.4977 15.5954 22.388 15.8232 22.1889C16.051 21.9898 16.1989 21.7148 16.2394 21.415L16.1556 21.3931C16.0156 21.36 15.8737 21.3337 15.7312 21.3125C15.6819 21.3056 15.6331 21.2956 15.5831 21.29C15.1961 21.245 14.8052 21.245 14.4181 21.29C14.3681 21.2956 14.3194 21.3056 14.27 21.3125C14.1275 21.3337 13.9856 21.36 13.8456 21.3931L13.7619 21.415ZM16.84 21.6081C16.7558 22.034 16.5264 22.4175 16.1909 22.6931C15.8555 22.9687 15.4348 23.1194 15.0006 23.1194C14.5665 23.1194 14.1458 22.9687 13.8103 22.6931C13.4749 22.4175 13.2455 22.034 13.1613 21.6081C12.2305 21.9769 11.4316 22.6163 10.8681 23.4438C10.3045 24.2713 10.0021 25.2488 10 26.25V26.5625C10 26.8111 10.0988 27.0496 10.2746 27.2254C10.4504 27.4012 10.6889 27.5 10.9375 27.5H11.25V25.3125C11.25 25.2296 11.2829 25.1501 11.3415 25.0915C11.4001 25.0329 11.4796 25 11.5625 25C11.6454 25 11.7249 25.0329 11.7835 25.0915C11.8421 25.1501 11.875 25.2296 11.875 25.3125V27.5H18.125V25.3125C18.125 25.2296 18.1579 25.1501 18.2165 25.0915C18.2751 25.0329 18.3546 25 18.4375 25C18.5204 25 18.5999 25.0329 18.6585 25.0915C18.7171 25.1501 18.75 25.2296 18.75 25.3125V27.5H19.0625C19.3111 27.5 19.5496 27.4012 19.7254 27.2254C19.9012 27.0496 20 26.8111 20 26.5625V26.25C19.9985 25.2484 19.6965 24.2702 19.133 23.4421C18.5696 22.614 17.7706 21.974 16.8394 21.605L16.84 21.6081ZM21.7019 16.8463C21.7019 16.8431 21.7019 16.8394 21.7019 16.8363C21.8757 16.5196 22.0234 16.1893 22.1437 15.8488L21.9869 13.4606C21.9869 13.4525 21.9869 13.4444 21.9869 13.4362C21.9125 12.1862 21.8881 11.58 21.8937 11.2756C21.3419 10.6469 20.3519 10.5056 19.1087 10.3275C18.775 10.2794 18.4275 10.2294 18.0688 10.1675C18.0116 10.1575 17.9583 10.1318 17.915 10.0933C17.8716 10.0548 17.8398 10.0049 17.8231 9.94938C17.6835 9.47222 17.5877 8.98332 17.5369 8.48875C17.306 8.87892 17.147 9.30739 17.0675 9.75375C17.0515 9.82781 17.0092 9.89356 16.9484 9.93874C16.8876 9.98392 16.8124 10.0055 16.7369 9.99937C16.2677 9.98376 15.798 9.99817 15.3306 10.0425C15.2878 10.0459 15.2447 10.0404 15.2041 10.0262C15.1635 10.012 15.1263 9.98943 15.095 9.96C15.0634 9.93072 15.0382 9.89523 15.021 9.85576C15.0038 9.81629 14.995 9.77368 14.995 9.73063V9.13938L14.5844 9.96062C14.5606 10.0079 14.5251 10.0484 14.4814 10.0782C14.4377 10.1081 14.3871 10.1263 14.3344 10.1312C13.66 10.2 12.93 10.2894 12.2244 10.3906C12.1798 10.397 12.1343 10.3937 12.0911 10.3809C12.0479 10.3681 12.008 10.3461 11.9741 10.3164C11.9402 10.2867 11.9131 10.2501 11.8947 10.2089C11.8763 10.1678 11.867 10.1232 11.8675 10.0781V9.4375L11.505 10.3431C11.4851 10.3931 11.4525 10.4371 11.4106 10.4708C11.3687 10.5045 11.3187 10.5269 11.2656 10.5356C9.03312 10.9 8.32375 11.1825 8.10687 11.3025C8.09875 11.6987 8.0575 12.5094 8.00937 13.3575C8.02008 13.3906 8.02495 13.4253 8.02375 13.46C7.96625 14.3312 7.89313 15.3069 7.85125 15.8569C7.97013 16.1943 8.11646 16.5215 8.28875 16.835V16.8425C8.96585 18.0165 9.94599 18.987 11.1266 19.6524C12.3073 20.3178 13.6451 20.6537 15 20.625C16.3533 20.6525 17.6892 20.316 18.868 19.6508C20.0468 18.9855 21.0253 18.0158 21.7013 16.8431L21.7019 16.8463ZM23.75 14.0625C23.75 13.9796 23.7171 13.9001 23.6585 13.8415C23.5999 13.7829 23.5204 13.75 23.4375 13.75H22.6481C22.6956 14.6 22.7444 15.4375 22.7731 15.8669C22.7758 15.9077 22.7705 15.9487 22.7575 15.9875C22.7262 16.08 22.695 16.1713 22.6569 16.2631C22.9955 16.0046 23.2702 15.6717 23.4597 15.2901C23.6492 14.9085 23.7486 14.4885 23.75 14.0625ZM6.53063 13.125C6.54188 13.125 6.55187 13.125 6.5625 13.125H7.40375C7.455 12.215 7.49437 11.3931 7.49125 11.1456C7.49027 11.0631 7.52195 10.9836 7.57937 10.9244C7.6975 10.7994 8.05313 10.4375 10.9981 9.94563L11.8975 7.69562C11.9246 7.62822 11.9743 7.57235 12.038 7.53762C12.1018 7.50288 12.1757 7.49144 12.247 7.50527C12.3183 7.51911 12.3826 7.55734 12.4287 7.61341C12.4749 7.66947 12.5001 7.73987 12.5 7.8125V9.71937C13.0406 9.64562 13.5881 9.57875 14.1069 9.52437L15.0331 7.6725C15.0639 7.60897 15.1156 7.55799 15.1796 7.52816C15.2436 7.49833 15.3159 7.49148 15.3844 7.50875C15.4528 7.52492 15.5138 7.5637 15.5575 7.61882C15.6011 7.67394 15.6249 7.74218 15.625 7.8125V9.39313C15.9281 9.37438 16.2569 9.35937 16.5212 9.3625C16.5727 8.99346 16.702 8.63957 16.9005 8.32421C17.0989 8.00885 17.3621 7.73921 17.6725 7.53313C17.7201 7.50925 17.7731 7.49796 17.8263 7.50032C17.8796 7.50268 17.9313 7.51861 17.9767 7.54661C18.022 7.5746 18.0594 7.61373 18.0854 7.66027C18.1114 7.70681 18.125 7.75921 18.125 7.8125C18.1408 8.40988 18.2247 9.0035 18.375 9.58188C18.6594 9.62813 18.9375 9.66813 19.2025 9.70687C20.5681 9.90312 21.7475 10.0712 22.4419 10.95C22.4872 11.0072 22.511 11.0783 22.5094 11.1512C22.5094 11.2619 22.5588 12.1381 22.6138 13.1269H23.4375C23.4481 13.1269 23.4581 13.1269 23.4688 13.1269L23.7531 11.0675C23.7401 8.79105 22.8267 6.61226 21.2126 5.007C19.5984 3.40174 17.4146 2.50046 15.1381 2.5H14.8619C12.5787 2.50248 10.3898 3.41051 8.77532 5.02488C7.16084 6.63925 6.25265 8.82811 6.25 11.1112L6.53063 13.125Z" fill="black"/>
</svg>
