<svg width="23" height="28" viewBox="0 0 23 28" fill="none" xmlns="http://www.w3.org/2000/svg">
<path d="M17.77 27H5.03001C2.82001 27 1 25.193 1 22.97V5.03001C1 2.82001 2.80701 1 5.03001 1H17.77C19.98 1 21.8 2.80701 21.8 5.03001V22.97C21.8 25.193 19.993 27 17.77 27Z" stroke="white" stroke-width="1.5" stroke-linecap="round" stroke-linejoin="round"/>
<path d="M19.85 15.3H2.95C1.871 15.3 1 14.429 1 13.35V10.75C1 9.67099 1.871 8.79999 2.95 8.79999H19.85C20.929 8.79999 21.8 9.67099 21.8 10.75V13.35C21.8 14.429 20.929 15.3 19.85 15.3Z" stroke="white" stroke-width="1.5" stroke-linecap="round" stroke-linejoin="round"/>
<path d="M6.84286 21.4101H6.85453" stroke="white" stroke-width="2.5" stroke-linecap="round" stroke-linejoin="round"/>
<path d="M15.9429 21.4101H15.9545" stroke="white" stroke-width="2.5" stroke-linecap="round" stroke-linejoin="round"/>
<path d="M8.14999 4.90002H14.65" stroke="white" stroke-width="1.5" stroke-linecap="round" stroke-linejoin="round"/>
</svg>
