<svg width="20" height="20" viewBox="0 0 20 20" fill="none" xmlns="http://www.w3.org/2000/svg">
<path d="M18.312 5.25H17.124V4.06201C17.124 2.75087 16.0611 1.68799 14.75 1.68799H5.25C3.93888 1.68799 2.876 2.75086 2.876 4.06199V5.25H1.688C1.03189 5.25 0.5 5.78189 0.5 6.438V8.37883C0.5 8.61807 0.693941 8.81201 0.93318 8.81201H1.25482C1.49406 8.81201 1.688 8.61807 1.688 8.37883V6.43799H2.876V17.8788C2.876 18.1181 3.06994 18.312 3.30918 18.312H4.81682C5.05606 18.312 5.25 18.1181 5.25 17.8788V17.124H14.75V17.8788C14.75 18.1181 14.9439 18.312 15.1832 18.312H16.6908C16.9301 18.312 17.124 18.1181 17.124 17.8788V6.43799H18.312V8.37883C18.312 8.61807 18.5059 8.81201 18.7452 8.81201H19.0668C19.3061 8.81201 19.5 8.61807 19.5 8.37883V6.43799C19.5 5.78188 18.9681 5.25 18.312 5.25ZM7.031 2.876H12.969C13.2965 2.876 13.562 3.1415 13.562 3.46901C13.562 3.79651 13.2965 4.06201 12.969 4.06201H7.031C6.7035 4.06201 6.438 3.79651 6.438 3.46901C6.438 3.1415 6.7035 2.876 7.031 2.876ZM6.0027 14.338H4.4973C4.25689 14.338 4.062 14.1431 4.062 13.9027V13.5853C4.062 13.3449 4.25689 13.15 4.4973 13.15H6.0027C6.24311 13.15 6.438 13.3449 6.438 13.5853V13.9027C6.438 14.1431 6.24311 14.338 6.0027 14.338ZM9.40601 11.188H4.655C4.3275 11.188 4.062 10.9225 4.062 10.595V5.843C4.062 5.5155 4.3275 5.25 4.655 5.25H9.40601V11.188ZM15.5027 14.338H13.9973C13.7569 14.338 13.562 14.1431 13.562 13.9027V13.5853C13.562 13.3449 13.7569 13.15 13.9973 13.15H15.5027C15.7431 13.15 15.938 13.3449 15.938 13.5853V13.9027C15.938 14.1431 15.7431 14.338 15.5027 14.338ZM15.345 11.188H10.594V5.25H15.345C15.6725 5.25 15.938 5.5155 15.938 5.843V10.595C15.938 10.9225 15.6725 11.188 15.345 11.188Z" fill="#FA6400"/>
</svg>
