<svg width="18" height="18" viewBox="0 0 18 18" fill="none" xmlns="http://www.w3.org/2000/svg">
<circle cx="9" cy="7" r="5" fill="#F3F3F3"/>
<path d="M9.10125 0.400439C5.41969 0.345595 2.36566 3.3047 2.30801 6.9852C2.29192 7.91413 2.46998 8.83617 2.83079 9.69231C3.1916 10.5484 3.7272 11.3198 4.40332 11.957C5.87355 13.3467 7.08609 14.9857 7.93617 16.8216L8.00121 16.9622C8.39531 17.813 9.60469 17.813 9.99879 16.9622L10.0638 16.8216C10.9117 14.9966 12.1035 13.3523 13.5742 11.9788C14.2439 11.3533 14.7776 10.5967 15.1422 9.75595C15.5067 8.91522 15.6942 8.00844 15.693 7.09208C15.693 3.42985 12.7508 0.45458 9.10125 0.400439ZM9 12.0277C6.27855 12.0277 4.06477 9.81282 4.06477 7.09243C4.06477 4.37204 6.27855 2.15755 9 2.15755C11.7214 2.15755 13.9352 4.37239 13.9352 7.09243C13.9352 9.81247 11.7211 12.0277 9 12.0277Z" fill="#949495"/>
<path d="M7.51921 10.9596H7.36312C7.28079 10.9596 7.20183 10.9269 7.14361 10.8687C7.08539 10.8105 7.05269 10.7315 7.05269 10.6492V9.98438H7.82964V10.6523C7.82881 10.7341 7.79573 10.8123 7.73761 10.8698C7.67948 10.9273 7.601 10.9596 7.51921 10.9596Z" fill="#949495"/>
<path d="M10.6369 10.9596H10.4808C10.3984 10.9596 10.3195 10.9269 10.2613 10.8687C10.2031 10.8105 10.1703 10.7315 10.1703 10.6492V9.98438H10.9473V10.6523C10.9465 10.7341 10.9134 10.8123 10.8553 10.8698C10.7971 10.9273 10.7187 10.9596 10.6369 10.9596Z" fill="#949495"/>
<path d="M10.6734 3.22525H7.32656C7.05026 3.22534 6.7853 3.33517 6.58996 3.53058C6.39462 3.72599 6.28488 3.99098 6.28488 4.26728V9.04853C6.28488 9.56533 6.66035 9.98439 7.12336 9.98439H10.8766C11.3396 9.98439 11.7151 9.56533 11.7151 9.04853V4.26728C11.7151 3.99098 11.6054 3.72599 11.41 3.53058C11.2147 3.33517 10.9497 3.22534 10.6734 3.22525ZM8.06836 3.95755C8.06836 3.8542 8.19035 3.77052 8.34082 3.77052H9.65918C9.80965 3.77052 9.93164 3.8542 9.93164 3.95755V4.26939C9.93164 4.37275 9.80965 4.45642 9.65918 4.45642H8.34082C8.19035 4.45642 8.06836 4.37275 8.06836 4.26939V3.95755ZM7.72945 9.46724H7.18523C7.14198 9.46867 7.09888 9.46138 7.0585 9.44582C7.01811 9.43025 6.98128 9.40672 6.95017 9.37663C6.91907 9.34653 6.89434 9.31049 6.87744 9.27065C6.86055 9.2308 6.85185 9.18796 6.85185 9.14468C6.85185 9.10141 6.86055 9.05857 6.87744 9.01872C6.89434 8.97888 6.91907 8.94283 6.95017 8.91274C6.98128 8.88265 7.01811 8.85912 7.0585 8.84355C7.09888 8.82798 7.14198 8.8207 7.18523 8.82213H7.72945C7.77271 8.8207 7.81581 8.82798 7.85619 8.84355C7.89657 8.85912 7.93341 8.88265 7.96451 8.91274C7.99562 8.94283 8.02035 8.97888 8.03724 9.01872C8.05413 9.05857 8.06284 9.10141 8.06284 9.14468C8.06284 9.18796 8.05413 9.2308 8.03724 9.27065C8.02035 9.31049 7.99562 9.34653 7.96451 9.37663C7.93341 9.40672 7.89657 9.43025 7.85619 9.44582C7.81581 9.46138 7.77271 9.46867 7.72945 9.46724ZM7.85742 8.27193C7.85742 8.21599 7.87964 8.16233 7.9192 8.12278C7.95876 8.08322 8.01241 8.06099 8.06836 8.06099H9.94922C10.0052 8.06099 10.0588 8.08322 10.0984 8.12278C10.1379 8.16233 10.1602 8.21599 10.1602 8.27193C10.1602 8.32787 10.1379 8.38153 10.0984 8.42108C10.0588 8.46064 10.0052 8.48287 9.94922 8.48287H8.06836C8.04063 8.48287 8.01317 8.4774 7.98755 8.46678C7.96194 8.45615 7.93867 8.44059 7.91908 8.42096C7.89949 8.40134 7.88396 8.37804 7.87338 8.35241C7.8628 8.32678 7.85737 8.29931 7.85742 8.27158V8.27193ZM10.8148 9.46724H10.2705C10.2273 9.46867 10.1842 9.46138 10.1438 9.44582C10.1034 9.43025 10.0666 9.40672 10.0355 9.37663C10.0044 9.34653 9.97965 9.31049 9.96276 9.27065C9.94587 9.2308 9.93716 9.18796 9.93716 9.14468C9.93716 9.10141 9.94587 9.05857 9.96276 9.01872C9.97965 8.97888 10.0044 8.94283 10.0355 8.91274C10.0666 8.88265 10.1034 8.85912 10.1438 8.84355C10.1842 8.82798 10.2273 8.8207 10.2705 8.82213H10.8148C10.858 8.8207 10.9011 8.82798 10.9415 8.84355C10.9819 8.85912 11.0187 8.88265 11.0498 8.91274C11.0809 8.94283 11.1057 8.97888 11.1226 9.01872C11.1394 9.05857 11.1481 9.10141 11.1481 9.14468C11.1481 9.18796 11.1394 9.2308 11.1226 9.27065C11.1057 9.31049 11.0809 9.34653 11.0498 9.37663C11.0187 9.40672 10.9819 9.43025 10.9415 9.44582C10.9011 9.46138 10.858 9.46867 10.8148 9.46724ZM11.25 6.93916C11.2481 7.05438 11.2005 7.16411 11.1177 7.24427C11.0349 7.32442 10.9237 7.36844 10.8084 7.36666H7.19262C7.13547 7.36768 7.07869 7.35743 7.02551 7.3365C6.97234 7.31556 6.92381 7.28435 6.8827 7.24465C6.84159 7.20494 6.80871 7.15753 6.78594 7.10511C6.76317 7.05269 6.75096 6.9963 6.75 6.93916V5.62291C6.75194 5.50769 6.79953 5.39795 6.88233 5.31779C6.96512 5.23764 7.07634 5.19362 7.19156 5.19541H10.8074C10.8645 5.19438 10.9213 5.20463 10.9745 5.22557C11.0277 5.2465 11.0762 5.27771 11.1173 5.31742C11.1584 5.35712 11.1913 5.40454 11.2141 5.45695C11.2368 5.50937 11.249 5.56576 11.25 5.62291V6.93916Z" fill="#949495"/>
</svg>
