<svg width="30" height="30" viewBox="0 0 30 30" fill="none" xmlns="http://www.w3.org/2000/svg">
<path d="M18.75 13.75C18.75 13.8736 18.7133 13.9945 18.6447 14.0972C18.576 14.2 18.4784 14.2801 18.3642 14.3274C18.25 14.3747 18.1243 14.3871 18.0031 14.363C17.8818 14.3389 17.7705 14.2794 17.6831 14.1919C17.5957 14.1045 17.5361 13.9932 17.512 13.8719C17.4879 13.7507 17.5003 13.625 17.5476 13.5108C17.5949 13.3966 17.675 13.299 17.7778 13.2303C17.8806 13.1617 18.0014 13.125 18.125 13.125C18.2908 13.125 18.4497 13.1908 18.5669 13.3081C18.6842 13.4253 18.75 13.5842 18.75 13.75ZM11.875 13.125C11.7514 13.125 11.6306 13.1617 11.5278 13.2303C11.425 13.299 11.3449 13.3966 11.2976 13.5108C11.2503 13.625 11.2379 13.7507 11.262 13.8719C11.2861 13.9932 11.3457 14.1045 11.4331 14.1919C11.5205 14.2794 11.6318 14.3389 11.7531 14.363C11.8743 14.3871 12 14.3747 12.1142 14.3274C12.2284 14.2801 12.326 14.2 12.3947 14.0972C12.4633 13.9945 12.5 13.8736 12.5 13.75C12.5 13.5842 12.4342 13.4253 12.3169 13.3081C12.1997 13.1908 12.0408 13.125 11.875 13.125ZM16.5075 17.0456C16.0587 17.3369 15.5351 17.4919 15 17.4919C14.4649 17.4919 13.9413 17.3369 13.4925 17.0456C13.4235 16.9995 13.3391 16.9827 13.2578 16.9989C13.1764 17.0151 13.1048 17.0629 13.0588 17.1319C13.0127 17.2008 12.9959 17.2853 13.012 17.3666C13.0282 17.448 13.076 17.5195 13.145 17.5656C13.6949 17.9304 14.3401 18.125 15 18.125C15.6599 18.125 16.3051 17.9304 16.855 17.5656C16.924 17.5195 16.9718 17.448 16.988 17.3666C17.0041 17.2853 16.9873 17.2008 16.9413 17.1319C16.8952 17.0629 16.8236 17.0151 16.7422 16.9989C16.6609 16.9827 16.5765 16.9995 16.5075 17.0456ZM8.44938 18.1706C8.2642 17.9367 8.09327 17.6919 7.9375 17.4375C7.12477 17.3201 6.38119 16.9148 5.84208 16.2954C5.30296 15.676 5.00415 14.8837 5 14.0625C5.00034 13.8814 5.05311 13.7043 5.15193 13.5526C5.25075 13.4009 5.3914 13.281 5.55688 13.2075C5.3125 9.63438 6.12688 6.78937 7.99438 4.75875C8.85989 3.85279 9.89907 3.13052 11.0499 2.63505C12.2007 2.13959 13.4396 1.88109 14.6925 1.875C18.2969 1.875 19.88 3.0625 21.0106 4.38C21.3691 4.41473 21.7169 4.52115 22.0334 4.69294C22.3499 4.86472 22.6287 5.09837 22.8531 5.38C24.2131 6.93375 24.8588 10.0644 24.4906 13.235C24.6433 13.3129 24.7716 13.4313 24.8614 13.5773C24.9513 13.7232 24.9992 13.8911 25 14.0625C24.9959 14.8837 24.697 15.676 24.1579 16.2954C23.6188 16.9148 22.8752 17.3201 22.0625 17.4375C21.9051 17.6911 21.7328 17.9351 21.5463 18.1681L22.095 18.9919C22.1717 19.1081 22.2213 19.2401 22.24 19.3781C22.3075 19.3906 25.7438 20.0656 25.6194 24.07C25.6176 24.1348 25.5957 24.1975 25.5567 24.2494C25.5176 24.3012 25.4635 24.3396 25.4016 24.3592C25.3398 24.3789 25.2734 24.3788 25.2116 24.359C25.1499 24.3392 25.0958 24.3007 25.0569 24.2488C24.7625 23.8767 24.4446 23.5238 24.105 23.1925C24.3689 24.3702 24.2309 25.6023 23.7131 26.6925C23.6888 26.7456 23.6501 26.7909 23.6014 26.8232C23.5527 26.8554 23.4959 26.8734 23.4375 26.875C23.4199 26.8751 23.4023 26.8736 23.385 26.8706C23.3178 26.8593 23.2561 26.8263 23.2094 26.7766C23.1627 26.727 23.1335 26.6634 23.1263 26.5956C23.0294 25.7868 22.8014 24.9992 22.4513 24.2637C22.4324 24.9366 22.2082 25.5876 21.8088 26.1294C21.7731 26.1752 21.7255 26.2102 21.6711 26.2304C21.6167 26.2507 21.5578 26.2554 21.5009 26.244C21.444 26.2327 21.3914 26.2057 21.349 26.1661C21.3065 26.1266 21.2759 26.076 21.2606 26.02C21.1289 25.6204 20.9517 25.2373 20.7325 24.8781C20.3376 24.2983 20.069 23.642 19.944 22.9518C19.819 22.2615 19.8404 21.5527 20.0069 20.8713C19.8865 20.8015 19.7833 20.7056 19.705 20.5906L19.3581 20.0706C18.6306 20.4982 17.8431 20.8142 17.0219 21.0081C18.0809 21.4167 18.9917 22.1359 19.6348 23.0714C20.2778 24.0069 20.6229 25.1149 20.625 26.25V26.5625C20.625 26.9769 20.4604 27.3743 20.1674 27.6674C19.8743 27.9604 19.4769 28.125 19.0625 28.125H10.9375C10.5231 28.125 10.1257 27.9604 9.83265 27.6674C9.53962 27.3743 9.375 26.9769 9.375 26.5625V26.25C9.37687 25.1142 9.72225 24.0056 10.3658 23.0697C11.0093 22.1339 11.9208 21.4146 12.9806 21.0063C12.1585 20.8125 11.3702 20.4965 10.6419 20.0688L10.2944 20.59C10.2157 20.7042 10.1123 20.7993 9.99188 20.8681C10.1589 21.5499 10.1807 22.2592 10.0558 22.9499C9.93092 23.6407 9.66212 24.2974 9.26688 24.8775C9.0477 25.2367 8.8705 25.6198 8.73875 26.0194C8.72344 26.0753 8.69286 26.1259 8.65042 26.1655C8.60799 26.2051 8.55537 26.232 8.49848 26.2434C8.44158 26.2547 8.38265 26.25 8.32827 26.2298C8.2739 26.2095 8.22624 26.1746 8.19063 26.1287C7.79123 25.5869 7.56685 24.936 7.5475 24.2631C7.19836 24.999 6.97123 25.7868 6.875 26.5956C6.86777 26.6634 6.83857 26.727 6.79186 26.7766C6.74514 26.8263 6.68347 26.8593 6.61625 26.8706C6.59851 26.8737 6.58051 26.8752 6.5625 26.875C6.50325 26.875 6.44524 26.8581 6.39522 26.8263C6.3452 26.7946 6.30524 26.7492 6.28 26.6956C5.76186 25.6055 5.62389 24.3733 5.88813 23.1956C5.54884 23.5262 5.2313 23.8784 4.9375 24.25C4.89861 24.3019 4.84453 24.3405 4.78275 24.3603C4.72097 24.38 4.65457 24.3801 4.59274 24.3605C4.53092 24.3408 4.47674 24.3024 4.43772 24.2506C4.39871 24.1988 4.37679 24.1361 4.375 24.0713C4.25 20.0669 7.6875 19.3919 7.75438 19.3794C7.7731 19.2414 7.82266 19.1094 7.89938 18.9931L8.44938 18.1706ZM9.41188 21.1313L7.75 20.0219C7.02969 20.2046 6.38315 20.6048 5.89828 21.1679C5.4134 21.7311 5.11373 22.4299 5.04 23.1694C5.44992 22.7239 5.89489 22.3119 6.37063 21.9375C6.42716 21.8934 6.49715 21.87 6.56885 21.8714C6.64055 21.8728 6.7096 21.8987 6.76442 21.945C6.81923 21.9912 6.85647 22.0549 6.8699 22.1254C6.88332 22.1958 6.8721 22.2687 6.83813 22.3319C6.40704 23.2696 6.28238 24.3193 6.48188 25.3319C6.65655 24.4626 7.09269 23.6675 7.73188 23.0531C7.78244 23.0127 7.84429 22.989 7.9089 22.9853C7.97351 22.9816 8.03769 22.998 8.09257 23.0323C8.14745 23.0666 8.19033 23.1171 8.21528 23.1768C8.24023 23.2365 8.24603 23.3025 8.23188 23.3656C8.11779 23.9833 8.17087 24.6203 8.38563 25.2106C8.4875 24.9981 8.60438 24.7869 8.72438 24.57C9.06986 24.0748 9.30927 23.5136 9.42758 22.9215C9.54589 22.3294 9.54054 21.7193 9.41188 21.1294V21.1313ZM10.1169 19.7319C9.66636 19.4192 9.24954 19.0606 8.87313 18.6619L8.41938 19.3425C8.39649 19.3767 8.38056 19.415 8.37252 19.4553C8.36448 19.4957 8.36447 19.5372 8.3725 19.5775C8.38055 19.6177 8.39645 19.656 8.41929 19.6901C8.44214 19.7242 8.47147 19.7535 8.50563 19.7763L9.34063 20.3325C9.40983 20.3782 9.49418 20.395 9.57563 20.3794C9.61587 20.3713 9.65414 20.3554 9.68824 20.3326C9.72235 20.3097 9.75161 20.2804 9.77438 20.2463L10.1169 19.7319ZM15 21.25C14.5836 21.2516 14.1691 21.3055 13.7663 21.4106C13.8034 21.7116 13.9494 21.9887 14.1766 22.1896C14.4039 22.3905 14.6967 22.5014 15 22.5014C15.3033 22.5014 15.5962 22.3905 15.8234 22.1896C16.0506 21.9887 16.1966 21.7116 16.2338 21.4106C15.8309 21.3055 15.4164 21.2516 15 21.25ZM16.8394 21.605C16.7551 22.0309 16.5257 22.4144 16.1903 22.69C15.8548 22.9656 15.4341 23.1162 15 23.1162C14.5659 23.1162 14.1452 22.9656 13.8097 22.69C13.4743 22.4144 13.2449 22.0309 13.1606 21.605C12.2294 21.974 11.4304 22.614 10.867 23.4421C10.3035 24.2702 10.0015 25.2484 10 26.25V26.5625C10 26.8111 10.0988 27.0496 10.2746 27.2254C10.4504 27.4012 10.6889 27.5 10.9375 27.5H11.25V25.3125C11.25 25.2296 11.2829 25.1501 11.3415 25.0915C11.4001 25.0329 11.4796 25 11.5625 25C11.6454 25 11.7249 25.0329 11.7835 25.0915C11.8421 25.1501 11.875 25.2296 11.875 25.3125V27.5H18.125V25.3125C18.125 25.2296 18.1579 25.1501 18.2165 25.0915C18.2751 25.0329 18.3546 25 18.4375 25C18.5204 25 18.5999 25.0329 18.6585 25.0915C18.7171 25.1501 18.75 25.2296 18.75 25.3125V27.5H19.0625C19.3111 27.5 19.5496 27.4012 19.7254 27.2254C19.9012 27.0496 20 26.8111 20 26.5625V26.25C19.9985 25.2484 19.6965 24.2702 19.133 23.4421C18.5696 22.614 17.7706 21.974 16.8394 21.605ZM15 20.625C19.1356 20.625 22.5 17.5406 22.5 13.75C22.4997 13.1142 22.4036 12.4821 22.215 11.875H19.45C19.3827 11.8749 19.3171 11.8531 19.2632 11.8128C19.2092 11.7725 19.1698 11.7158 19.1506 11.6512C18.949 10.8977 18.8265 10.1252 18.785 9.34625C18.4411 10.0518 18.2293 10.8144 18.16 11.5963C18.1518 11.6733 18.1153 11.7445 18.0575 11.7961C17.9998 11.8477 17.9249 11.8761 17.8475 11.8756H15.7C15.6327 11.8756 15.5671 11.8538 15.5132 11.8134C15.4592 11.7731 15.4198 11.7165 15.4006 11.6519C15.199 10.8983 15.0765 10.1258 15.035 9.34688C14.6911 10.0524 14.4793 10.815 14.41 11.5969C14.4018 11.6739 14.3653 11.7451 14.3075 11.7967C14.2498 11.8483 14.1749 11.8767 14.0975 11.8763H11.95C11.8827 11.8762 11.8171 11.8544 11.7632 11.8141C11.7092 11.7737 11.6698 11.7171 11.6506 11.6525C11.449 10.8989 11.3265 10.1264 11.285 9.3475C10.9411 10.0531 10.7293 10.8156 10.66 11.5975C10.6518 11.6745 10.6153 11.7457 10.5575 11.7974C10.4998 11.849 10.4249 11.8773 10.3475 11.8769H7.785C7.59655 12.4834 7.50047 13.1149 7.5 13.75C7.5 17.5406 10.8644 20.625 15 20.625ZM22.25 20.0212L20.5875 21.1294C20.4587 21.7204 20.4536 22.3318 20.5727 22.9249C20.6918 23.518 20.9324 24.0801 21.2794 24.5756C21.4 24.7931 21.5163 25.0044 21.6181 25.2169C21.8347 24.627 21.8878 23.9895 21.7719 23.3719C21.7577 23.309 21.7634 23.2434 21.788 23.1839C21.8126 23.1243 21.855 23.0739 21.9094 23.0394C21.9596 23.008 22.0176 22.9914 22.0769 22.9912C22.1458 22.9904 22.213 23.0124 22.2681 23.0538C22.9075 23.6681 23.3436 24.4632 23.5181 25.3325C23.7172 24.3199 23.5926 23.2703 23.1619 22.3325C23.1295 22.2698 23.1192 22.198 23.1328 22.1288C23.1464 22.0596 23.183 21.997 23.2367 21.9512C23.2903 21.9054 23.3579 21.8791 23.4284 21.8766C23.499 21.8742 23.5682 21.8956 23.625 21.9375C24.1008 22.3113 24.546 22.7227 24.9563 23.1675C24.8857 22.4277 24.5876 21.7279 24.103 21.1644C23.6183 20.601 22.971 20.2016 22.25 20.0212ZM21.125 18.6619C20.7484 19.0605 20.3316 19.4191 19.8813 19.7319L20.2225 20.2444C20.2684 20.3133 20.3399 20.3612 20.4211 20.3775C20.5023 20.3938 20.5867 20.3771 20.6556 20.3312L21.0738 20.0525L21.4906 19.7744C21.5249 19.7517 21.5544 19.7224 21.5773 19.6883C21.6003 19.6542 21.6163 19.6159 21.6244 19.5756C21.6324 19.5353 21.6324 19.4938 21.6244 19.4535C21.6163 19.4131 21.6004 19.3748 21.5775 19.3406L21.125 18.6619ZM24.375 14.0625C24.3745 13.9959 24.3525 13.9313 24.3123 13.8783C24.2721 13.8252 24.2158 13.7866 24.1519 13.7681C24.1379 13.7691 24.1239 13.7691 24.11 13.7681C24.0961 13.7635 24.0827 13.7574 24.07 13.75H24.0625H23.125C23.1244 14.772 22.8988 15.7812 22.4644 16.7062C23.0192 16.5205 23.5018 16.1656 23.8445 15.6914C24.1872 15.2172 24.3727 14.6476 24.375 14.0625ZM6.17813 13.125H6.905C6.95631 12.5575 7.07679 11.9983 7.26375 11.46C7.28503 11.3987 7.32487 11.3455 7.37773 11.3079C7.4306 11.2703 7.49386 11.25 7.55875 11.25H10.0731C10.1682 10.131 10.6117 9.07 11.3413 8.21625C11.385 8.17243 11.4407 8.14258 11.5014 8.13048C11.5621 8.11837 11.625 8.12456 11.6822 8.14826C11.7393 8.17196 11.7882 8.2121 11.8225 8.26359C11.8568 8.31508 11.8751 8.37561 11.875 8.4375C11.8825 9.38323 11.9872 10.3257 12.1875 11.25H13.8225C13.9176 10.131 14.3611 9.07 15.0906 8.21625C15.1343 8.17222 15.1901 8.14217 15.2509 8.12995C15.3117 8.11772 15.3747 8.12386 15.432 8.14758C15.4893 8.1713 15.5383 8.21154 15.5727 8.26317C15.607 8.3148 15.6252 8.37548 15.625 8.4375C15.6325 9.38323 15.7372 10.3257 15.9375 11.25H17.5725C17.6676 10.131 18.1111 9.07 18.8406 8.21625C18.8843 8.17222 18.9401 8.14217 19.0009 8.12995C19.0617 8.11772 19.1247 8.12386 19.182 8.14758C19.2393 8.1713 19.2883 8.21154 19.3227 8.26317C19.357 8.3148 19.3752 8.37548 19.375 8.4375C19.3825 9.38323 19.4872 10.3257 19.6875 11.25H22.4375C22.5024 11.25 22.5657 11.2703 22.6185 11.3079C22.6714 11.3455 22.7112 11.3987 22.7325 11.46C22.9207 11.9982 23.0425 12.5573 23.095 13.125H23.875C24.2075 10.175 23.6094 7.19062 22.3838 5.79C22.2038 5.55461 21.9742 5.36178 21.7113 5.22523C21.4484 5.08868 21.1585 5.01178 20.8625 5C20.8172 4.99977 20.7725 4.9897 20.7315 4.9705C20.6905 4.95129 20.6542 4.92339 20.625 4.88875C19.5794 3.64813 18.1381 2.5 14.6925 2.5C13.5261 2.50553 12.3727 2.74589 11.3012 3.20676C10.2296 3.66763 9.26188 4.33957 8.45563 5.1825C6.71438 7.07375 5.955 9.75 6.17813 13.125ZM7.53563 16.7069C7.10115 15.7817 6.87561 14.7722 6.875 13.75H5.94313C5.93103 13.7542 5.91872 13.7577 5.90625 13.7606C5.90188 13.7606 5.8975 13.7606 5.89313 13.7606C5.81964 13.7704 5.75211 13.8062 5.70288 13.8617C5.65365 13.9171 5.62601 13.9884 5.625 14.0625C5.62741 14.6476 5.81297 15.2173 6.15564 15.6915C6.49831 16.1658 6.98088 16.5209 7.53563 16.7069Z" fill="black"/>
</svg>
