<svg width="30" height="30" viewBox="0 0 30 30" fill="none" xmlns="http://www.w3.org/2000/svg">
<circle cx="15" cy="15" r="14" fill="#F3F3F3" stroke="white" stroke-width="2"/>
<g clip-path="url(#clip0_573_415)">
<path d="M19.5807 11.2006L9.18835 17.2006C8.84194 17.4006 8.47767 17.303 8.27767 16.9566C8.07767 16.6102 8.17528 16.2459 8.52169 16.0459L18.914 10.0459C19.2604 9.84592 19.6247 9.94353 19.8247 10.2899C20.0247 10.6364 19.9271 11.0006 19.5807 11.2006Z" fill="#FA6400"/>
<path d="M19.5807 11.2006C19.4075 11.3006 19.2587 11.3096 19.0765 11.2608L13.6124 9.79666C13.2482 9.69905 13.0482 9.35264 13.1458 8.98837C13.2434 8.62409 13.5898 8.42409 13.9541 8.5217L19.4182 9.9858C19.7824 10.0834 19.9824 10.4298 19.8848 10.7941C19.836 10.9762 19.7539 11.1006 19.5807 11.2006Z" fill="#FA6400"/>
<path d="M21.4784 13.954L11.0861 19.954C10.7396 20.154 10.3754 20.0564 10.1754 19.71C9.97537 19.3636 10.073 18.9993 10.4194 18.7993L20.8117 12.7993C21.1581 12.5993 21.5224 12.6969 21.7224 13.0434C21.9224 13.3898 21.8248 13.754 21.4784 13.954Z" fill="#FA6400"/>
<path d="M16.5502 21.4181C16.377 21.5181 16.2282 21.5271 16.046 21.4783L10.5819 20.0142C10.2176 19.9166 10.0176 19.5702 10.1152 19.2059C10.2129 18.8416 10.5593 18.6416 10.9235 18.7392L16.3876 20.2033C16.7519 20.3009 16.9519 20.6473 16.8543 21.0116C16.8055 21.1937 16.7234 21.3181 16.5502 21.4181Z" fill="#FA6400"/>
</g>
<defs>
<clipPath id="clip0_573_415">
<rect width="16" height="16" fill="white" transform="translate(4.07178 12.0718) rotate(-30)"/>
</clipPath>
</defs>
</svg>
