<svg width="20" height="20" viewBox="0 0 20 20" fill="none" xmlns="http://www.w3.org/2000/svg">
<path d="M10 0.15625C5.77832 0.15625 2.34375 3.59082 2.34375 7.8125C2.34375 9.86328 3.58621 12.4969 6.0366 15.6398C7.15924 17.076 8.375 18.4369 9.67602 19.7137C9.76325 19.7972 9.8793 19.8437 10 19.8437C10.1207 19.8437 10.2368 19.7972 10.324 19.7137C11.625 18.4369 12.8408 17.076 13.9634 15.6398C16.4138 12.4969 17.6562 9.86328 17.6562 7.8125C17.6562 3.59082 14.2217 0.15625 10 0.15625ZM10 13.2812C6.98438 13.2812 4.53125 10.8281 4.53125 7.8125C4.53125 4.79688 6.98438 2.34375 10 2.34375C13.0156 2.34375 15.4688 4.79688 15.4688 7.8125C15.4688 10.8281 13.0156 13.2812 10 13.2812Z" fill="#FA6400"/>
<path d="M13.7528 7.15317L10.3153 4.02817C10.2291 3.94973 10.1166 3.90627 10 3.90627C9.88342 3.90627 9.771 3.94973 9.68471 4.02817L6.24721 7.15317C6.16713 7.22599 6.1147 7.32428 6.09882 7.43135C6.08295 7.53843 6.1046 7.6477 6.1601 7.74063C6.2039 7.81138 6.26527 7.86958 6.33825 7.90956C6.41122 7.94954 6.49331 7.96993 6.57651 7.96875H7.03127V10.9375C7.03127 11.0618 7.08066 11.1811 7.16857 11.269C7.25648 11.3569 7.3757 11.4063 7.50002 11.4063H8.59377C8.7181 11.4063 8.83732 11.3569 8.92523 11.269C9.01314 11.1811 9.06252 11.0618 9.06252 10.9375V9.21875C9.06252 9.09443 9.11191 8.9752 9.19982 8.8873C9.28773 8.79939 9.40695 8.75 9.53127 8.75H10.4688C10.5931 8.75 10.7123 8.79939 10.8002 8.8873C10.8881 8.9752 10.9375 9.09443 10.9375 9.21875V10.9375C10.9375 11.0618 10.9869 11.1811 11.0748 11.269C11.1627 11.3569 11.282 11.4063 11.4063 11.4063H12.5C12.6243 11.4063 12.7436 11.3569 12.8315 11.269C12.9194 11.1811 12.9688 11.0618 12.9688 10.9375V7.96875H13.4235C13.5067 7.96993 13.5888 7.94954 13.6618 7.90956C13.7348 7.86958 13.7962 7.81138 13.8399 7.74063C13.8955 7.6477 13.9171 7.53843 13.9012 7.43135C13.8853 7.32428 13.8329 7.22599 13.7528 7.15317Z" fill="#FA6400"/>
</svg>
