<svg width="20" height="20" viewBox="0 0 20 20" fill="none" xmlns="http://www.w3.org/2000/svg">
<path d="M15.8335 7.29167C14.1085 7.29167 12.7085 5.89167 12.7085 4.16667C12.7085 2.44167 14.1085 1.04167 15.8335 1.04167C17.5585 1.04167 18.9585 2.44167 18.9585 4.16667C18.9585 5.89167 17.5585 7.29167 15.8335 7.29167ZM15.8335 2.29167C14.8002 2.29167 13.9585 3.13334 13.9585 4.16667C13.9585 5.20001 14.8002 6.04167 15.8335 6.04167C16.8668 6.04167 17.7085 5.20001 17.7085 4.16667C17.7085 3.13334 16.8668 2.29167 15.8335 2.29167Z" fill="white"/>
<path d="M10.0002 11.4583H5.8335C5.49183 11.4583 5.2085 11.175 5.2085 10.8333C5.2085 10.4917 5.49183 10.2083 5.8335 10.2083H10.0002C10.3418 10.2083 10.6252 10.4917 10.6252 10.8333C10.6252 11.175 10.3418 11.4583 10.0002 11.4583Z" fill="white"/>
<path d="M13.3335 14.7917H5.8335C5.49183 14.7917 5.2085 14.5083 5.2085 14.1667C5.2085 13.825 5.49183 13.5417 5.8335 13.5417H13.3335C13.6752 13.5417 13.9585 13.825 13.9585 14.1667C13.9585 14.5083 13.6752 14.7917 13.3335 14.7917Z" fill="white"/>
<path d="M12.5001 18.9583H7.50008C2.97508 18.9583 1.04175 17.025 1.04175 12.5V7.5C1.04175 2.97501 2.97508 1.04167 7.50008 1.04167H11.6667C12.0084 1.04167 12.2917 1.32501 12.2917 1.66667C12.2917 2.00834 12.0084 2.29167 11.6667 2.29167H7.50008C3.65841 2.29167 2.29175 3.65834 2.29175 7.5V12.5C2.29175 16.3417 3.65841 17.7083 7.50008 17.7083H12.5001C16.3417 17.7083 17.7084 16.3417 17.7084 12.5V8.33334C17.7084 7.99167 17.9917 7.70834 18.3334 7.70834C18.6751 7.70834 18.9584 7.99167 18.9584 8.33334V12.5C18.9584 17.025 17.0251 18.9583 12.5001 18.9583Z" fill="white"/>
</svg>
