<svg width="16" height="15" viewBox="0 0 16 15" fill="none" xmlns="http://www.w3.org/2000/svg">
<path d="M12.6875 0H8.9375C7.12841 0 5.65625 1.47216 5.65625 3.28125C5.65625 4.9315 6.88078 6.30112 8.46875 6.52909V7.96875C8.46875 8.15825 8.58272 8.32947 8.75806 8.40178C8.93097 8.47394 9.13378 8.43525 9.26894 8.30016L11.0066 6.5625H12.6875C14.4966 6.5625 16 5.09034 16 3.28125C16 1.47216 14.4966 0 12.6875 0ZM8.9375 3.74994C8.67856 3.74994 8.46875 3.54006 8.46875 3.28119C8.46875 3.02231 8.67856 2.81244 8.9375 2.81244C9.19638 2.81244 9.40625 3.02231 9.40625 3.28119C9.40625 3.54006 9.19638 3.74994 8.9375 3.74994ZM10.8125 3.74994C10.5536 3.74994 10.3438 3.54006 10.3438 3.28119C10.3438 3.02231 10.5536 2.81244 10.8125 2.81244C11.0714 2.81244 11.2812 3.02231 11.2812 3.28119C11.2812 3.54006 11.0714 3.74994 10.8125 3.74994ZM12.6875 3.74994C12.4286 3.74994 12.2188 3.54006 12.2188 3.28119C12.2188 3.02231 12.4286 2.81244 12.6875 2.81244C12.9464 2.81244 13.1562 3.02231 13.1562 3.28119C13.1562 3.54006 12.9464 3.74994 12.6875 3.74994Z" fill="#FA6400"/>
<path d="M10.5312 14.0625C11.3067 14.0625 11.9375 13.4317 11.9375 12.6562V10.7812C11.9375 10.5794 11.8084 10.4004 11.6171 10.3368L8.81116 9.39925C8.67381 9.35303 8.52369 9.37406 8.40284 9.45372L7.20991 10.2488C5.94647 9.64644 4.44731 8.14725 3.84488 6.88381L4.64 5.69088C4.72009 5.57047 4.74025 5.41988 4.69447 5.28256L3.75697 2.47666C3.69337 2.28534 3.51438 2.15625 3.3125 2.15625H1.40625C0.630813 2.15625 0 2.78047 0 3.55591C0 8.95659 5.13056 14.0625 10.5312 14.0625Z" fill="#FA6400"/>
</svg>
