<svg width="32" height="32" viewBox="0 0 32 32" fill="none" xmlns="http://www.w3.org/2000/svg">
<path d="M25.21 30.43C23.89 30.82 22.33 31 20.5 31H11.5C9.66999 31 8.10999 30.82 6.78999 30.43C7.11999 26.53 11.125 23.455 16 23.455C20.875 23.455 24.88 26.53 25.21 30.43Z" stroke="white" stroke-width="1.5" stroke-linecap="round" stroke-linejoin="round"/>
<path d="M20.5 1H11.5C4 1 1 4.00001 1 11.5V20.5C1 26.1701 2.71 29.2751 6.79 30.4301C7.12 26.5301 11.125 23.455 16 23.455C20.875 23.455 24.88 26.5301 25.21 30.4301C29.29 29.2751 31 26.1701 31 20.5V11.5C31 4.00001 28 1 20.5 1ZM16 19.255C13.03 19.255 10.63 16.8401 10.63 13.8701C10.63 10.9 13.03 8.50002 16 8.50002C18.97 8.50002 21.37 10.9 21.37 13.8701C21.37 16.8401 18.97 19.255 16 19.255Z" stroke="white" stroke-width="1.5" stroke-linecap="round" stroke-linejoin="round"/>
<path d="M21.37 13.87C21.37 16.84 18.97 19.255 16 19.255C13.03 19.255 10.63 16.84 10.63 13.87C10.63 10.9 13.03 8.5 16 8.5C18.97 8.5 21.37 10.9 21.37 13.87Z" stroke="white" stroke-width="1.5" stroke-linecap="round" stroke-linejoin="round"/>
</svg>
