<svg width="30" height="30" viewBox="0 0 30 30" fill="none" xmlns="http://www.w3.org/2000/svg">
<path d="M15.175 18.8375V16.3875C15.175 13.2375 17.725 10.675 20.8875 10.675H23.3374" stroke="white" stroke-width="1.5" stroke-linecap="round" stroke-linejoin="round"/>
<path d="M7.02499 10.6876H9.47502C12.625 10.6876 15.1875 13.2376 15.1875 16.4001V17.2126V21.5626" stroke="white" stroke-width="1.5" stroke-linecap="round" stroke-linejoin="round"/>
<path d="M8.92503 8.4375L6.67504 10.6875L8.92503 12.9375" stroke="white" stroke-width="1.5" stroke-linecap="round" stroke-linejoin="round"/>
<path d="M21.075 8.4375L23.325 10.6875L21.075 12.9375" stroke="white" stroke-width="1.5" stroke-linecap="round" stroke-linejoin="round"/>
<path d="M11.25 27.5001H18.75C25 27.5001 27.5 25.0001 27.5 18.7501V11.2501C27.5 5.00006 25 2.50006 18.75 2.50006H11.25C4.99998 2.50006 2.49998 5.00006 2.49998 11.2501V18.7501C2.49998 25.0001 4.99998 27.5001 11.25 27.5001Z" stroke="white" stroke-width="1.5" stroke-linecap="round" stroke-linejoin="round"/>
</svg>
