<svg width="14" height="14" viewBox="0 0 14 14" fill="none" xmlns="http://www.w3.org/2000/svg">
<g clip-path="url(#clip0_495_302)">
<path d="M0.410156 9.22577C0.183641 9.22577 0 9.40938 0 9.63593V13.5898C0 13.8163 0.183641 14 0.410156 14H1.81563V9.22577H0.410156Z" fill="#FA6400"/>
<path d="M13.5898 9.22577H12.1843V14H13.5898C13.8163 14 14 13.8163 14 13.5898V9.63593C14 9.40938 13.8163 9.22577 13.5898 9.22577Z" fill="#FA6400"/>
<path d="M12.0022 4.86932L7.41013 2.78195V1.25962H8.75725C8.98376 1.25962 9.1674 1.07598 9.1674 0.849461V0.410156C9.1674 0.183641 8.98376 0 8.75725 0H6.99997C6.77346 0 6.58982 0.183641 6.58982 0.410156V2.78195L1.99774 4.86932C1.79151 4.96305 1.70032 5.2062 1.79408 5.41242C1.88782 5.61865 2.13101 5.70978 2.33718 5.61608L2.63594 5.48026V13.5898C2.63594 13.8163 2.81958 14 3.0461 14H5.27188V10.9539C5.27188 10.7274 5.45552 10.5437 5.68203 10.5437H8.31792C8.54443 10.5437 8.72807 10.7274 8.72807 10.9539V14H10.9539C11.1804 14 11.364 13.8163 11.364 13.5898V5.48029L11.6628 5.61611C11.7178 5.64113 11.7755 5.65299 11.8322 5.65299C11.9881 5.65299 12.1372 5.56361 12.2059 5.41245C12.2996 5.2062 12.2084 4.96305 12.0022 4.86932ZM6.99997 8.75935C6.04707 8.75935 5.27188 7.9841 5.27188 7.03125C5.27188 6.07835 6.0471 5.30316 6.99997 5.30316C7.95285 5.30316 8.72807 6.07835 8.72807 7.03125C8.72807 7.9841 7.95288 8.75935 6.99997 8.75935Z" fill="#FA6400"/>
</g>
<defs>
<clipPath id="clip0_495_302">
<rect width="14" height="14" fill="white"/>
</clipPath>
</defs>
</svg>
