<svg width="28" height="28" viewBox="0 0 28 28" fill="none" xmlns="http://www.w3.org/2000/svg">
<path d="M10.1 27H17.9C24.4 27 27 24.4 27 17.9V10.1C27 3.6 24.4 1 17.9 1H10.1C3.6 1 1 3.6 1 10.1V17.9C1 24.4 3.6 27 10.1 27Z" stroke="white" stroke-width="1.5" stroke-linecap="round" stroke-linejoin="round"/>
<path d="M18.641 22.45V17.38" stroke="white" stroke-width="1.5" stroke-miterlimit="10" stroke-linecap="round" stroke-linejoin="round"/>
<path d="M18.641 8.08517V5.55017" stroke="white" stroke-width="1.5" stroke-miterlimit="10" stroke-linecap="round" stroke-linejoin="round"/>
<path d="M18.641 14.8449C20.5077 14.8449 22.021 13.3316 22.021 11.4649C22.021 9.59818 20.5077 8.0849 18.641 8.0849C16.7742 8.0849 15.261 9.59818 15.261 11.4649C15.261 13.3316 16.7742 14.8449 18.641 14.8449Z" stroke="white" stroke-width="1.5" stroke-miterlimit="10" stroke-linecap="round" stroke-linejoin="round"/>
<path d="M9.35901 22.4501V19.9151" stroke="white" stroke-width="1.5" stroke-miterlimit="10" stroke-linecap="round" stroke-linejoin="round"/>
<path d="M9.35901 10.6202V5.55017" stroke="white" stroke-width="1.5" stroke-miterlimit="10" stroke-linecap="round" stroke-linejoin="round"/>
<path d="M9.35901 19.9151C11.2257 19.9151 12.739 18.4019 12.739 16.5352C12.739 14.6684 11.2257 13.1552 9.35901 13.1552C7.49228 13.1552 5.979 14.6684 5.979 16.5352C5.979 18.4019 7.49228 19.9151 9.35901 19.9151Z" stroke="white" stroke-width="1.5" stroke-miterlimit="10" stroke-linecap="round" stroke-linejoin="round"/>
</svg>
